<svg width="16" height="20" viewBox="0 0 16 20" fill="none" xmlns="http://www.w3.org/2000/svg">
<path fill-rule="evenodd" clip-rule="evenodd" d="M0.658003 18.7989C0.911745 19.0517 1.24781 19.1921 1.60615 19.1921C1.83568 19.1921 2.0623 19.1321 2.26278 19.0207L7.78024 15.9273L13.2444 19.0139C13.5563 19.1911 13.9175 19.2337 14.2633 19.1379C14.608 19.043 14.8947 18.8173 15.071 18.5054C15.1843 18.304 15.2443 18.0774 15.2443 17.8478L15.2395 4.74817C15.2395 2.19622 13.5989 0.790955 10.6198 0.790955H4.8893C1.95189 0.790955 0.267705 2.17298 0.267705 4.58256V17.8517C0.266737 18.2091 0.405229 18.5452 0.658003 18.7989ZM8.98988 10.8143H6.52219C6.12124 10.8143 5.7958 10.4889 5.7958 10.088C5.7958 9.68704 6.12124 9.36163 6.52219 9.36163H8.98988C9.39083 9.36163 9.71624 9.68704 9.71624 10.088C9.71624 10.4889 9.39083 10.8143 8.98988 10.8143ZM5.21278 6.99529H10.2993C10.7002 6.99529 11.0256 6.66988 11.0256 6.26893C11.0256 5.86798 10.7002 5.54257 10.2993 5.54257H5.21278C4.81183 5.54257 4.48642 5.86798 4.48642 6.26893C4.48642 6.66988 4.81183 6.99529 5.21278 6.99529Z" fill="#791469"/>
</svg>
