<svg width="18" height="19" viewBox="0 0 18 19" fill="none" xmlns="http://www.w3.org/2000/svg">
<path fill-rule="evenodd" clip-rule="evenodd" d="M1.55194 11.129L14.64 18.3035C15.3576 18.6957 16.207 18.6347 16.8588 18.1379C17.5125 17.6401 17.8011 16.8333 17.6123 16.0324L16.2662 10.34C16.2247 10.1646 16.0678 10.041 15.8876 10.0417L7.42481 10.0782L7.4219 10.0782C7.02192 10.0782 6.69748 9.75468 6.69554 9.3547C6.69361 8.95278 7.01805 8.62737 7.419 8.62543L15.8981 8.58805C16.077 8.58727 16.2322 8.46398 16.2733 8.28985L17.6123 2.62859C17.8011 1.82766 17.5125 1.01995 16.8588 0.521177C16.4908 0.241287 16.0588 0.0989207 15.624 0.0989206C15.2898 0.0989206 14.9518 0.18318 14.64 0.354601L1.55194 7.52911C0.885621 7.89519 0.487576 8.56732 0.487576 9.32951C0.487576 10.0907 0.885621 10.7638 1.55194 11.129Z" fill="white"/>
</svg>
