<svg width="24" height="24" viewBox="0 0 24 24" fill="none" xmlns="http://www.w3.org/2000/svg">
<path fill-rule="evenodd" clip-rule="evenodd" d="M3.9278 13.8159L17.4418 21.2239C18.1828 21.6289 19.0598 21.5659 19.7328 21.0529C20.4078 20.5389 20.7058 19.7059 20.5108 18.8789L19.1209 13.0013C19.0781 12.8202 18.9161 12.6925 18.73 12.6933L9.9918 12.7309L9.9888 12.7309C9.5758 12.7309 9.2408 12.3969 9.2388 11.9839C9.2368 11.5689 9.5718 11.2329 9.9858 11.2309L18.7408 11.1923C18.9256 11.1915 19.0858 11.0642 19.1283 10.8844L20.5108 5.0389C20.7058 4.2119 20.4078 3.3779 19.7328 2.8629C19.3528 2.5739 18.9068 2.4269 18.4578 2.4269C18.1128 2.4269 17.7638 2.5139 17.4418 2.6909L3.9278 10.0989C3.2398 10.4769 2.8288 11.1709 2.8288 11.9579C2.8288 12.7439 3.2398 13.4389 3.9278 13.8159Z" fill="white"/>
</svg>
